# xmcd
#
# Track frame offsets:
#	150
#	19182
#	36075
#	56605
#	73720
#	86500
#	97942
#	110672
#	122922
#	138282
#	152957
#	173732
#	189872
#	203080
#	212765
#	233202
#	254502
#	273602
#	289342
#	300062
#
# Disc length: 4212 seconds
#
# Revision: 1
# Processed by: cddbd v1.5PL3 Copyright (c) Steve Scherf et al.
# Submitted via: CDex 1.50Beta5
#
DISCID=1c107214
DTITLE=越路吹雪 - 越路吹雪メモリアル-愛の賛歌 [CD2]
DYEAR=1900
DGENRE=World
TTITLE0=枯葉
TTITLE1=そして今は
TTITLE2=人生は過ぎゆく
TTITLE3=私の心はヴァイオリン
TTITLE4=恋ごころ
TTITLE5=夢見るシャンソン人形
TTITLE6=オー・シャンゼリゼ
TTITLE7=ユーヌ・シャンソン
TTITLE8=ラストダンスは私に
TTITLE9=バラ色の人生
TTITLE10=アコーディオン弾き
TTITLE11=私は首ったけ
TTITLE12=知らない街
TTITLE13=あわれなジャン
TTITLE14=老兵
TTITLE15=ミロール
TTITLE16=ブラボー・クラウン
TTITLE17=群衆
TTITLE18=水に流して
TTITLE19=愛の賛歌
EXTD=
EXTT0=
EXTT1=
EXTT2=
EXTT3=
EXTT4=
EXTT5=
EXTT6=
EXTT7=
EXTT8=
EXTT9=
EXTT10=
EXTT11=
EXTT12=
EXTT13=
EXTT14=
EXTT15=
EXTT16=
EXTT17=
EXTT18=
EXTT19=
PLAYORDER=
